<?xml version="1.0" encoding="UTF-8"?>
<!-- Created with Inkscape (http://www.inkscape.org/) -->
<svg width="632.8" height="559.2" version="1.1" viewBox="0 0 632.8 559.2" xmlns="http://www.w3.org/2000/svg" xmlns:cc="http://creativecommons.org/ns#" xmlns:dc="http://purl.org/dc/elements/1.1/" xmlns:rdf="http://www.w3.org/1999/02/22-rdf-syntax-ns#"><metadata><rdf:RDF><cc:Work rdf:about=""><dc:format>image/svg+xml</dc:format><dc:type rdf:resource="http://purl.org/dc/dcmitype/StillImage"/><dc:title/></cc:Work></rdf:RDF></metadata><g transform="translate(-4.7508e-7 .69208)" stroke-width=".8"><path d="m0 279.6v-279.6h632.8v559.2h-632.8z" fill="#fdfdfd"/><path d="m263.25 535.97c-5.0317-.39375-9.6666-.91465-10.3-1.1576-.63303-.24292-6.3967-1.1782-12.808-2.0783s-11.907-1.7908-12.212-1.9792-3.2043-.89218-6.4432-1.5639c-9.3747-1.9443-30.221-8.2562-37.089-11.23-2.2-.95257-6.34-2.738-9.2-3.9676-21.123-9.0818-37.087-18.108-58.713-33.197-26.569-18.538-56.798-51.97-75.093-83.052-4.4383-7.5401-14.194-28.081-14.194-29.886 0-.70985 4.5815-2.5858 13-5.3229 18.939-6.1576 31.32-8.9276 47-10.515 4.62-.46777 16.826-1.6915 27.125-2.7194 20.682-2.0643 18.998-1.4435 23.075-8.5045 4.8177-8.3428 11.699-19.385 12.711-20.397 2.0022-2.0022 25.177-7.407 32.535-7.5876.35508-.009-1.5655-2.0629-4.268-4.565-6.6963-6.1996-11.133-12.176-15.035-20.251-3.9306-8.1354-6.7272-18.821-5.5484-21.2 1.6245-3.2792 9.5582-13.127 12.198-15.14 6.6999-5.1102 24.151-10.337 51.116-15.309 9.9173-1.8288 13.08-2.7511 9.4347-2.7511-6.0411 0-39.519-1.7567-46.143-2.4213-12.809-1.2852-25.751-4.6092-28.979-7.443-4.0246-3.5336-5.0212-6.0712-5.0212-12.785 0-6.944 1.8901-11.189 8.2421-18.512 13.455-15.511 35.47-28.018 56.539-32.121 3.3104-.64461 7.4588-1.5252 9.2188-1.9569s7.2987-1.3082 12.308-1.9477c5.0096-.63957 9.2523-1.3068 9.4283-1.4829.17601-.17601-3.3827-.56252-7.9082-.85891-4.5256-.2964-10.028-.87652-12.228-1.2892s-7.5163-1.3062-11.814-1.9857c-4.2976-.6795-9.1576-1.7979-10.8-2.4853-17.882-7.4846-25.043-15.708-23.972-27.528.72076-7.9488 5.161-15.964 13.291-23.991 21.046-20.78 49.972-34.229 81.695-37.983 29.02-3.4338 39.593-3.4412 53.341-.03702 8.8796 2.1987 11.66 3.517 26.725 12.672 10.934 6.6445 17.732 12.708 19.186 17.115 2.0628 6.2502-2.2242 16.862-9.8416 24.362-10.976 10.807-37.88 25.043-57.411 30.379-3.3.90151-6.63 1.8296-7.4 2.0623-3.284.99282-.79264 1.6265 8.4 2.1365 10.282.57046 12.666.88134 28.142 3.67 13.073 2.3557 22.969 5.3045 41.42 12.342 6.5376 2.4937 23.838 10.753 23.838 11.381 0 1.24-7.8816 15.473-11.868 21.432-5.7662 8.6191-16.072 19.896-19.72 21.579-1.5464.71316-4.0716 1.8777-5.6116 2.5878-3.5048 1.6162-3.5852 2.7074-.2 2.7136 9.5792.0174 30.542 5.557 42.616 11.262l5.1785 2.4467 2.2029-1.5404c11.048-7.7257 33.923-19.808 46.203-24.405 12.572-4.7059 35.707-10.675 59.6-15.377 22.296-4.3877 38.427-13.418 57.492-32.186 4.5952-4.5234 8.5694-8.0094 8.8315-7.7467.26205.26275.47647 16.557.47647 36.21 0 25.686-.3033 37.869-1.0787 43.332-.5933 4.18-1.5844 11.2-2.2024 15.6-1.2492 8.8937-2.5177 14.809-6.0904 28.4-4.8093 18.296-7.4859 25.631-17.37 47.6-7.6904 17.094-7.7059 17.128-9.2645 20.8-4.7866 11.276-6.7431 16.706-7.9266 22-2.2921 10.252-6 18.637-14.505 32.8-1.8558 3.0903-11.493 17.532-12.546 18.8-.3653.44-2.3634 3.0064-4.4402 5.7031-9.1739 11.912-25.081 28.948-35.272 37.776-2.3627 2.0466-6.0235 5.2778-8.1351 7.1804-3.3643 3.0314-5.7035 4.8567-14.278 11.142-6.5768 4.8207-12.581 8.9145-16.132 10.999-2.2486 1.32-5.4093 3.2706-7.0238 4.3346-4.1326 2.7236-25.181 13.36-28.76 14.533-1.6365.53639-3.6955 1.4206-4.5755 1.9648-.88.54425-3.04 1.4366-4.8 1.983s-3.56 1.2573-4 1.5799c-1.8716 1.3722-26.475 8.9432-34 10.463-2.42.48867-6.2 1.3826-8.4 1.9865-2.2.60389-8.32 1.6925-13.6 2.4192-5.28.72665-11.58 1.6272-14 2.0013-6.6805 1.0326-43.99 1.5188-54.349.70825z" fill="#cbdd9c"/><path d="m268 535.98c-8.0908-.5896-32.205-3.7028-34.678-4.4769-.81268-.25445-5.3127-1.2871-10-2.2949-15.116-3.2497-29.806-7.6892-40.922-12.367-3.3-1.3886-7.44-3.1201-9.2-3.8477-6.5482-2.7072-25.074-12.208-33.2-17.027-9.8002-5.8113-17.648-11.141-30.4-20.647-18.347-13.677-45.503-43.402-61.137-66.922-6.8802-10.351-16.576-28.23-19.307-35.6-1.7835-4.814-1.8272-5.2742-.58857-6.2.73585-.55 1.7609-1 2.2779-1 .517 0 4.8582-1.2325 9.6471-2.7389 22.4-7.046 34.157-9.5567 50.889-10.867 6.2801-.49184 12.858-1.2017 14.618-1.5776 1.76-.37582 8.4888-1.1289 14.953-1.6735 6.4641-.54462 12.079-1.2046 12.478-1.4666.39905-.26197 3.8485-5.6963 7.6654-12.076s7.5616-12.404 8.3216-13.386c1.7544-2.2678 11.207-5.1353 22.982-6.9715 4.84-.75479 9.3178-1.5378 9.9507-1.7401.77664-.24822-1.0606-2.6328-5.6514-7.335-6.1775-6.3274-7.7803-8.3762-12.245-15.651-1.9075-3.1084-5.9992-15.088-6.5662-19.225-.41956-3.0611-.11988-3.856 3.295-8.7411 5.5697-7.9675 10.974-12.367 18.496-15.057 11.986-4.2864 25.592-7.5975 46.52-11.321 5.39-.959 9.8-1.9622 9.8-2.2292 0-.26709-9.81-.72007-21.8-1.0066-22.937-.54818-30.082-1.1752-43.8-3.8438-10.775-2.0962-14.828-4.0722-17.738-8.6491-1.8981-2.9849-2.2588-4.3996-2.2441-8.8.0206-6.135 1.462-9.7719 6.2748-15.832 9.2726-11.675 23.888-22.475 38.908-28.749 8.7132-3.6398 20.174-6.5117 36.409-9.1235 8.8109-1.4174 15.887-2.7096 15.726-2.8714-.16184-.16184-6.0183-.83927-13.014-1.5054-25.558-2.4336-36.139-5.375-45.52-12.655-5.493-4.2624-7.1508-6.6942-8.7479-12.832-1.1027-4.238-1.1039-5.265-.0116-9.9752 2.611-11.259 9.8331-20.266 25.734-32.096 14.129-10.512 32.535-18.933 51.426-23.527 11.218-2.7284 16.594-3.4103 36.201-4.5921 13.363-.80544 18.2-.80271 24.8.01402 9.5728 1.1846 18.564 3.9564 24.199 7.4605 2.2 1.3679 6.52 3.9236 9.6 5.6794 13.106 7.4711 19.431 13.325 21.159 19.583.62747 2.2725.40812 3.8472-1.1617 8.3404-4.2594 12.191-13.714 20.609-36.599 32.583-9.4728 4.9565-20.97 9.2887-37.798 14.242l-4.8 1.413 8.4.53083c27.83 1.7587 57.946 8.6621 78.197 17.925 2.338 1.0694 4.4223 1.9444 4.6318 1.9444 1.1027 0 15.572 7.5958 15.572 8.1747 0 .72498-5.2077 10.764-7.6177 14.685-3.9705 6.4597-5.9426 9.2311-10.489 14.74-7.2808 8.8228-10.423 11.568-17.093 14.935-5.4527 2.7526-5.7811 3.0492-3.6 3.2519 15.506 1.4412 30.277 5.329 44.623 11.745 2.5426 1.1371 5.0016 2.0675 5.4644 2.0675.46289 0 2.7026-1.1973 4.9772-2.6607 2.2746-1.4634 5.1026-3.2566 6.2845-3.985 2.1391-1.3182 3.0111-1.8235 12.362-7.1626 18.697-10.676 35.28-16.076 77.089-25.104 11.386-2.4587 10.496-2.4004 13.711-.89737 2.7381 1.28 18.612 8.2873 31.317 13.825l7.0282 3.0631-.43667 3.2609c-.24017 1.7935-1.1448 8.3009-2.0103 14.461s-2.1309 17.68-2.8119 25.6-1.404 15.3-1.6064 16.4-.93404 9.02-1.6257 17.6c-1.8209 22.587-6.693 41.438-16.748 64.8-4.5412 10.551-4.4924 10.402-3.3975 10.381.53911-.0105 2.3302-.33259 3.9802-.71575 3.6466-.84682 3.7262-.4064 1.3739 7.6001-2.9346 9.9886-3.3701 11.055-7.8173 19.135-19.566 35.55-49.23 68.444-84.101 93.261-9.7848 6.9636-10.912 7.6672-24.055 15.016-16.134 9.0207-31.167 15.711-48.4 21.539-5.683 1.9221-21.22 6.229-25.2 6.9856-1.54.29275-5.68 1.2-9.2 2.016-18.559 4.3026-51.358 6.4143-74 4.7644zm157.2-181.57c6.4655-2.2449 14.669-5.4074 17.601-6.7857 1.32-.62037 4.5262-2.104 7.125-3.2968l4.725-2.1689 2.2552 2.7172c1.2403 1.4945 4.1541 5.4954 6.475 8.891 2.3209 3.3956 4.4176 6.1856 4.6592 6.2.61318.0366 2.2516-4.6801 3.9754-11.444 1.3629-5.3482 3.7779-14.166 6.718-24.529.68656-2.42 1.2526-4.49 1.2578-4.6.0486-1.0234-22.994 6.9052-30.941 10.646-2.2828 1.0746-4.2996 1.9538-4.482 1.9538s-3.9719 1.9962-8.4212 4.4359c-6.2102 3.4053-10.327 6.5034-17.718 13.334-5.2956 4.8942-9.6283 9.159-9.6283 9.4772 0 .55119 5.928-1.195 16.399-4.8306zm-119-86.069 10.569-10.052 5.4144 1.561c2.9779.85858 11.714 3.5903 19.414 6.0705 13.314 4.2883 27.662 7.7658 36.4 8.8216l4 .48337-3.2-2.904c-1.76-1.5972-4.1-3.4911-5.2-4.2086-1.1-.71758-3.98-2.7885-6.4-4.6021-19.384-14.527-38.322-23.327-63.514-29.515-8.2109-2.0168-25.426-5.2116-25.91-4.8083-.12308.10255 3.0212 6.6346 6.9873 14.516 7.1359 14.18 7.2202 14.417 8.0932 22.71 1.0717 10.181 1.3984 11.98 2.1754 11.98.33087 0 5.3575-4.5235 11.17-10.052z" fill="#b3d474"/><path d="m268 535.98c-8.0908-.5896-32.205-3.7028-34.678-4.4769-.81268-.25445-5.3127-1.2871-10-2.2949-15.116-3.2497-29.806-7.6892-40.922-12.367-3.3-1.3886-7.44-3.1201-9.2-3.8477-6.5482-2.7072-25.074-12.208-33.2-17.027-9.8002-5.8113-17.648-11.141-30.4-20.647-18.347-13.677-45.503-43.402-61.137-66.922-6.8802-10.351-16.576-28.23-19.307-35.6-1.7835-4.814-1.8272-5.2742-.58857-6.2.73585-.55 1.7609-1 2.2779-1 .517 0 4.8582-1.2325 9.6471-2.7389 22.4-7.046 34.157-9.5567 50.889-10.867 6.2801-.49184 12.858-1.2017 14.618-1.5776 1.76-.37582 8.4888-1.1289 14.953-1.6735 6.4641-.54462 12.079-1.2046 12.478-1.4666.39905-.26197 3.8485-5.6963 7.6654-12.076s7.5616-12.404 8.3216-13.386c1.7544-2.2678 11.207-5.1353 22.982-6.9715 4.84-.75479 9.3178-1.5378 9.9507-1.7401.77664-.24822-1.0606-2.6328-5.6514-7.335-6.1775-6.3274-7.7803-8.3762-12.245-15.651-1.9075-3.1084-5.9992-15.088-6.5662-19.225-.41956-3.0611-.11988-3.856 3.295-8.7411 5.5697-7.9675 10.974-12.367 18.496-15.057 11.986-4.2864 25.592-7.5975 46.52-11.321 5.39-.959 9.8-1.9622 9.8-2.2292 0-.26709-9.81-.72007-21.8-1.0066-22.937-.54818-30.082-1.1752-43.8-3.8438-10.775-2.0962-14.828-4.0722-17.738-8.6491-1.8981-2.9849-2.2588-4.3996-2.2441-8.8.0206-6.135 1.462-9.7719 6.2748-15.832 9.2726-11.675 23.888-22.475 38.908-28.749 8.7132-3.6398 20.174-6.5117 36.409-9.1235 8.8109-1.4174 15.887-2.7096 15.726-2.8714-.16184-.16184-6.0183-.83927-13.014-1.5054-25.558-2.4336-36.139-5.375-45.52-12.655-5.493-4.2624-7.1508-6.6942-8.7479-12.832-1.1027-4.238-1.1039-5.265-.0116-9.9752 2.611-11.259 9.8331-20.266 25.734-32.096 14.129-10.512 32.535-18.933 51.426-23.527 11.218-2.7284 16.594-3.4103 36.201-4.5921 13.363-.80544 18.2-.80271 24.8.01402 9.5728 1.1846 18.564 3.9564 24.199 7.4605 2.2 1.3679 6.52 3.9236 9.6 5.6794 13.106 7.4711 19.431 13.325 21.159 19.583.62747 2.2725.40812 3.8472-1.1617 8.3404-4.2594 12.191-13.714 20.609-36.599 32.583-9.4728 4.9565-20.97 9.2887-37.798 14.242l-4.8 1.413 8.4.53083c27.83 1.7587 57.946 8.6621 78.197 17.925 2.338 1.0694 4.4223 1.9444 4.6318 1.9444 1.1027 0 15.572 7.5958 15.572 8.1747 0 .72498-5.2077 10.764-7.6177 14.685-3.9705 6.4597-5.9426 9.2311-10.489 14.74-7.2808 8.8228-10.423 11.568-17.093 14.935-5.4527 2.7526-5.7811 3.0492-3.6 3.2519 15.506 1.4412 30.277 5.329 44.623 11.745 2.5426 1.1371 5.1565 2.0675 5.8088 2.0675 1.1009 0 13.875-7.5781 14.768-8.7611.22-.29135 1.57-1.003 3-1.5814s2.6-1.368 2.6-1.7546c0-.38662.27-.63707.6-.55655.93464.22805 8.2-3.587 8.2-4.3058 0-.35232.57772-.64059 1.2838-.64059s3.0739-.89911 5.2618-1.998c5.3628-2.6936 14.86-6.4599 18.054-7.1596 1.43-.31325 2.6-.82314 2.6-1.1331 0-1.0634 12.47.30921 13.175 1.4503.18651.30178-8.5706 4.8962-19.46 10.21-13.392 6.5347-23.281 11.989-30.557 16.854-16.452 11.001-16.719 10.128 3.4394 11.278 9.3515.53339 21.503 1.4728 27.003 2.0875 5.5.61472 13.96 1.519 18.8 2.0094 20.584 2.086 57.676 10.63 58.635 13.506.25018.75057-6.1243 12.142-9.5894 17.137-.85539 1.233-1.8542 3.933-2.2197 6s-1.0575 5.7383-1.538 8.1583c-.48046 2.42-1.4446 10.34-2.1426 17.6s-1.5788 16.26-1.9573 20c-.37855 3.74-.9438 13.051-1.2561 20.691l-.56786 13.891 4.318-.59059c2.3749-.32483 6.2979-1.1246 8.7179-1.7773 9.4286-2.5429 9.6-2.5619 9.6-1.0652 0 1.2549-1.8494 8.0575-4.1462 15.25-1.0685 3.3463-8.1249 16.298-13.73 25.2-17.796 28.265-46.265 57.936-75.669 78.861-9.7848 6.9636-10.912 7.6672-24.055 15.016-16.134 9.0207-31.167 15.711-48.4 21.539-5.683 1.9221-21.22 6.229-25.2 6.9856-1.54.29275-5.68 1.2-9.2 2.016-18.559 4.3026-51.358 6.4143-74 4.7644zm154.95-163.18c7.7102-7.92 14.3-14.4 14.644-14.4.34389 0 3.8114 4.86 7.7056 10.8 7.8621 11.992 7.0578 11.488 15.897 9.9617 2.64-.45596 6.9509-1.1948 9.5798-1.6418 2.6289-.44702 4.8833-.91629 5.0098-1.0428.12653-.12653-1.2795-3.5442-3.1245-7.5948l-3.3546-7.3647 1.3444-5.3588c.73944-2.9474 2.4152-9.1388 3.724-13.759 4.6455-16.399 6.5894-24.098 6.1858-24.502-.22488-.22488-1.0739-.0551-1.8868.37728-.81285.43239-6.8779 2.66-13.478 4.9502-13.905 4.8252-24.291 9.344-31.482 13.698-2.795 1.6922-5.3382 3.0767-5.6516 3.0767-.31343 0-5.2942 4.5095-11.068 10.021-9.067 8.6549-23.866 25.998-28.265 33.126l-1.2671 2.0527 10.067.87522c5.5369.48138 10.367.93138 10.735 1 .36708.0686 6.9758-6.3552 14.686-14.275zm-118.56-41.646c1.7305-4.3792 2.9473-7.1894 6.4853-14.978 1.0552-2.323 1.9186-4.408 1.9186-4.6334 0-.2253 1.1134-2.8246 2.4744-5.7763 4.6643-10.116 6.1554-13.372 7.7718-16.967.89028-1.98 2.7291-6.015 4.0862-8.9666 1.3571-2.9516 2.4675-5.7204 2.4675-6.1528 0-2.0047 1.9373-1.4804 6.1838 1.6735 2.5389 1.8857 6.6714 4.8724 9.1834 6.6372s6.832 4.8855 9.6 6.935c6.4722 4.792 15.468 9.617 22.933 12.3 8.4804 3.048 31.3 7.091 31.3 5.5457 0-.56473-1.577-3.0793-8.2607-13.172-10.72-16.187-12.335-18.183-15.147-18.72-1.4258-.27211-4.1103-1.6615-5.9657-3.0876-7.0557-5.423-10.762-8.0656-13.053-9.3078-1.3037-.70676-5.4095-3.3532-9.124-5.8811-14.247-9.6955-32.671-17.469-53.563-22.601-8.2956-2.0376-25.43-5.2104-25.919-4.7996-.1279.10736 2.8127 6.2124 6.5347 13.567 4.7902 9.4652 6.9161 14.578 7.2769 17.501.28034 2.2711.83184 5.9292 1.2255 8.1292.39371 2.2.91441 6.88 1.1571 10.4.70175 10.177 2.0242 25.749 2.8874 34 .96985 9.2699 4.0775 23.287 5.0886 22.952.40575-.1343 1.512-2.2035 2.4584-4.5983z" fill="#c5a78c"/><path d="m273.6 535.92c-26.219-2.0599-36.093-3.5021-55.2-8.0626-18.843-4.4974-36.833-10.869-52.809-18.703-3.9851-1.954-7.415-3.5528-7.622-3.5528-.8476 0-21.249-11.732-27.569-15.854-30.459-19.865-51.771-40.402-75.651-72.898-6.8634-9.3399-10.247-14.962-21.935-36.448-3.0038-5.522-5.1786-12.356-4.233-13.302.73506-.73507 8.4637-3.1329 25.818-8.0102 10.672-2.9993 28.051-6.0617 40.4-7.119 5.28-.45207 12.3-1.1658 15.6-1.586 3.3-.42021 9.78-1.1594 14.4-1.6426 9.9001-1.0355 9.2259-.49513 16.8-13.465 2.86-4.8976 5.994-10.244 6.9644-11.881 1.6236-2.7386 2.3258-3.1258 8.8-4.8532 8.5408-2.2788 17.996-4.0414 21.988-4.0987 1.624-.0234 3.1913-.42827 3.4828-.89991.29149-.47164-2.1418-3.6216-5.4072-7-6.6747-6.9054-10.396-12.034-13.538-18.656-2.0498-4.321-6.2907-17.139-6.2907-19.014 0-1.1477 7.4211-11.37 10.462-14.411 1.2755-1.2755 3.5389-3.073 5.0299-3.9945 3.0122-1.8616 16.894-6.5685 23.709-8.0386 2.42-.52209 5.3-1.2804 6.4-1.6851 1.8308-.67358 5.4148-1.3754 27.961-5.4749 4.1586-.75615 7.2186-1.5755 6.8-1.8208s-10.661-.69598-22.761-1.0015c-32.773-.82751-55.069-4.4807-60.23-9.8687-10.045-10.487-3.2184-26.459 18.23-42.652 15.795-11.924 34.984-18.994 59.672-21.984l10.728-1.2992 15.2 7.5579c8.36 4.1568 19.52 9.4488 24.8 11.76 26.379 11.546 33.094 14.522 41.402 18.351 2.9712 1.3691 5.6511 2.4892 5.9554 2.4892.3043 0 9.3795 4.4001 20.167 9.778l19.614 9.778-6.1605 2.822c-3.3883 1.5521-6.1644 3.092-6.1692 3.422-.005.33 1.0309.6 2.3015.6 9.6643 0 40.92 8.8084 48.867 13.772 1.2214.76275 2.9207.002 10.539-4.7146 9.0434-5.5994 22.096-13.057 22.853-13.057.21865 0 2.1932-.90192 4.388-2.0043 5.3958-2.7102 12.76-5.6094 19.042-7.497 4.5407-1.3643 5.7764-1.4427 9.7458-.6181 2.5002.51937 4.7401 1.1386 4.9775 1.376.23744.23743-8.4872 4.7837-19.388 10.103-13.411 6.5439-23.298 11.997-30.577 16.864-16.452 11.001-16.719 10.128 3.4394 11.278 9.3515.53339 21.503 1.4728 27.003 2.0875 5.5.61472 13.96 1.519 18.8 2.0094 20.584 2.086 57.676 10.63 58.635 13.506.25018.75057-6.1243 12.142-9.5894 17.137-.85539 1.233-1.8542 3.933-2.2197 6s-1.0575 5.7383-1.538 8.1583c-.48046 2.42-1.4446 10.34-2.1426 17.6s-1.5788 16.26-1.9573 20c-.37855 3.74-.9438 13.051-1.2561 20.691l-.56786 13.891 3.918-.54697c2.1549-.30083 7.0732-1.1767 10.93-1.9464 3.8564-.76968 7.1215-1.2895 7.2558-1.1552.13431.13431-.71967 3.9391-1.8977 8.4551-7.3642 28.23-45.139 76-82.77 104.67-33.735 25.701-72.134 43.026-114 51.433-13.036 2.6179-19.537 3.4482-38.4 4.9049-16.845 1.3008-18.531 1.3183-31.2.32291zm149.35-163.12c7.7102-7.92 14.3-14.4 14.644-14.4.34389 0 3.8114 4.86 7.7056 10.8 7.8621 11.992 7.0578 11.488 15.897 9.9617 2.64-.45596 6.9509-1.1948 9.5798-1.6418 2.6289-.44702 4.8833-.91629 5.0098-1.0428.12653-.12653-1.2795-3.5442-3.1245-7.5948l-3.3546-7.3647 1.3444-5.3588c.73944-2.9474 2.4152-9.1388 3.724-13.759 4.6455-16.399 6.5894-24.098 6.1858-24.502-.22488-.22488-1.0739-.0551-1.8868.37728-.81285.43239-6.8779 2.66-13.478 4.9502-13.905 4.8252-24.291 9.344-31.482 13.698-2.795 1.6922-5.3382 3.0767-5.6516 3.0767-.31343 0-5.2942 4.5095-11.068 10.021-9.067 8.6549-23.866 25.998-28.265 33.126l-1.2671 2.0527 10.067.87522c5.5369.48138 10.367.93138 10.735 1 .36708.0686 6.9758-6.3552 14.686-14.275zm-118.56-41.646c1.7305-4.3792 2.9473-7.1894 6.4853-14.978 1.0552-2.323 1.9186-4.408 1.9186-4.6334 0-.2253 1.1134-2.8246 2.4744-5.7763 4.6643-10.116 6.1554-13.372 7.7718-16.967.89028-1.98 2.7291-6.015 4.0862-8.9666 1.3571-2.9516 2.4675-5.7204 2.4675-6.1528 0-2.0047 1.9373-1.4804 6.1838 1.6735 2.5389 1.8857 6.6714 4.8724 9.1834 6.6372s6.832 4.8855 9.6 6.935c6.4722 4.792 15.468 9.617 22.933 12.3 8.4804 3.048 31.3 7.091 31.3 5.5457 0-.56473-1.577-3.0793-8.2607-13.172-10.617-16.031-12.33-18.158-15.067-18.706-2.469-.4938-5.2413-2.3036-13.717-8.9548-20.577-16.148-45.736-27.854-72.155-33.572-9.0692-1.9632-22.345-4.2556-22.699-3.9197-.16446.15602 2.9541 6.8691 6.9302 14.918 7.7218 15.632 9.0455 20.302 10.155 35.834.77722 10.88 2.0552 25.879 2.863 33.6.96985 9.2699 4.0775 23.287 5.0886 22.952.40575-.1343 1.512-2.2035 2.4584-4.5983zm-63.196-177.63c-3.52-.36504-10.36-1.0454-15.2-1.512-24.402-2.3522-41.403-11.013-44.843-22.843-2.5162-8.6554.5293-19.219 8.0935-28.073 4.2426-4.966 16.062-15.043 22.399-19.096 28.106-17.979 58.595-25.381 99.55-24.169 11.824.35002 13.951.63573 20.4 2.7405 9.7454 3.1805 10.478 3.7047 10.209 7.3021-.12049 1.6081-.93674 12.501-1.8139 24.207-.87714 11.706-1.5948 24.507-1.5948 28.447 0 4.4844-.37402 7.6643-1 8.5016-2.518 3.3681-26.548 12.748-41 16.005-3.08.69401-7.94 1.4529-10.8 1.6863-4.796.39152-19.308 3.4229-30.768 6.427-2.6224.68745-5.3224 1.2028-6 1.1453-.67756-.0575-4.1119-.40331-7.6319-.76837z" fill="#cc8c72"/><path d="m271.2 535.57c-17.198-1.0958-19.426-1.3488-32.8-3.7249-30.5-5.4189-53.644-13.134-81.303-27.102-12.933-6.5311-13.931-7.1151-29.331-17.148-15.527-10.115-14.954-9.4641-16.519-18.8-.55322-3.3-1.5631-7.7459-2.2442-9.8798-1.322-4.1419-.81832-5.2793 2.3508-5.308.74403-.006 1.5508-.33268 1.7929-.72433.24205-.39164 3.0533-1.3408 6.2472-2.1093 3.1939-.76846 6.1671-1.6568 6.6071-1.9741s3.32-1.2355 6.4-2.0404c8.0033-2.0917 10.981-3.4218 10.271-4.5883-.32663-.53669-2.266-3.4958-4.3097-6.5758-2.0437-3.08-4.401-6.7475-5.2384-8.15s-6.3825-9.2927-12.323-17.534-11.012-15.301-11.271-15.689c-.25917-.38775-5.2992-1.2167-11.2-1.8422-5.9008-.62544-12.709-1.5392-15.129-2.0306-2.42-.49141-8.72-1.7526-14-2.8027-22.745-4.5235-36.417-8.0692-37.658-9.7659-.52147-.71315-1.5711-3.2728-2.3324-5.6882-1.3239-4.2-1.3215-4.4375.05578-5.4446 1.8069-1.3212 6.9925-1.2818 14.734.11193 12.46 2.2432 26.845 5.1079 28.026 5.5813.67434.2703 4.9943 1.1704 9.6 2.0002 4.6057.82982 11.074 2.0584 14.374 2.7303 8.0343 1.6357 23.817 3.8857 26.8 3.8206 1.32-.0288 5.7688-.4919 9.8863-1.0291l7.4863-.97674-.53866-9.2458c-.29625-5.0852-.71537-9.8632-.93137-10.618-.4352-1.5207-2.2717-1.9272-11.903-2.6345-13.634-1.0013-26.8-3.1622-26.8-4.3986 0-.46684 3.4982-.92495 25.455-3.3334 6.8508-.75148 8.4597-1.1908 9.46-2.5834 1.5631-2.1761 11.859-19.312 13.604-22.643.73923-1.4106 1.8321-2.7521 2.4286-2.981.5965-.2289 3.5074.49653 6.4686 1.6121s7.5441 2.7774 10.184 3.693c2.64.91562 5.16 1.9403 5.6 2.2772.44.33682 2.9557 1.2369 5.5904 2.0001 2.6347.76326 5.3347 1.6663 6 2.0067 1.0663.54562 5.0648 1.8098 25.21 7.9704 2.64.80736 8.04 2.4181 12 3.5794 3.96 1.1613 10.08 2.9603 13.6 3.9977 3.52 1.0374 8.38 2.3211 10.8 2.8525 2.42.53146 4.76 1.2184 5.2 1.5266.44.30819 3.86 1.2217 7.6 2.0301 3.74.80837 7.16 1.7384 7.6 2.0668 1.4933 1.1144 11.976 1.6138 17.2.81943 2.86-.43493 8.26-1.4612 12-2.2806 6.4329-1.4094 6.785-1.5955 6.5219-3.4477-.15294-1.0769-.5553-2.3179-.89415-2.7579s-1.2317-2.78-1.984-5.2c-.75237-2.42-1.5851-4.94-1.8506-5.6-.26543-.66-1.7793-4.98-3.3642-9.6l-2.8816-8.4-5.1732-.57336c-6.7518-.74832-22.016-2.1341-33.574-3.0481-5.06-.40012-22.5-1.0882-38.756-1.5291l-29.556-.8016-5.512-5.4239c-9.9766-9.8172-15.308-18.561-19.302-31.654-2.1682-7.1082-2.5126-9.3703-1.4267-9.3703.35638 0 2.2086-2.3567 4.1162-5.2371 5.816-8.7824 12.132-13.086 23.549-16.044 2.6795-.69432 5.2351-1.5001 5.6792-1.7906 1.4395-.94169 27.791-6.621 42.807-9.226 8.7366-1.5156 5.4438-1.9384-19.6-2.517-31.974-.73866-54.698-4.4502-59.789-9.7652-10.088-10.532-3.2967-26.474 18.189-42.694 15.576-11.759 34.79-18.854 59.6-22.006l10-1.2707 18.181 8.8757c9.9994 4.8816 18.361 8.8757 18.581 8.8757.32146 0 18.956 8.1428 25.638 11.203.88.40304 9.16 4.1187 18.4 8.257 9.24 4.1383 23.597 10.928 31.904 15.088l15.104 7.5637-6.1029 2.744c-3.3566 1.5092-6.1033 2.9731-6.1038 3.2532-.00048.28007.98912.67946 2.1991.88756 1.21.20808 7.06 1.1848 13 2.1704s11.16 2.0841 11.6 2.4409c.44.35685 3.14 1.2532 6 1.9919 2.86.73868 5.56 1.6089 6 1.9338s2.6 1.2475 4.8 2.0502 4.7101 1.9447 5.578 2.5378c.8679.59304 2.1018 1.0782 2.7419 1.0782.64014 0 5.15-2.4676 10.022-5.4835 8.8619-5.4859 21.88-12.916 22.628-12.916.21865 0 2.1932-.90192 4.388-2.0043 5.3958-2.7102 12.76-5.6094 19.042-7.497 4.5407-1.3643 5.7764-1.4427 9.7458-.6181 2.5002.51937 4.7401 1.1386 4.9775 1.376.23744.23743-8.4872 4.7837-19.388 10.103-13.411 6.5439-23.298 11.997-30.577 16.864-16.452 11.001-16.719 10.128 3.4394 11.278 9.3515.53339 21.503 1.4728 27.003 2.0875 5.5.61472 13.96 1.519 18.8 2.0094 20.584 2.086 57.676 10.63 58.635 13.506.25018.75057-6.1243 12.142-9.5894 17.137-.85539 1.233-1.8542 3.933-2.2197 6s-1.0575 5.7383-1.538 8.1583c-.48046 2.42-1.4446 10.34-2.1426 17.6s-1.5788 16.26-1.9573 20c-.37855 3.74-.9438 13.051-1.2561 20.691l-.56786 13.891 3.918-.54697c2.1549-.30083 7.101-1.1822 10.991-1.9586l7.0735-1.4117-.44409 2.0674c-.24425 1.137-.99988 4.6666-1.6792 7.8435-3.5125 16.427-26.139 49.826-51.098 75.424-30.661 31.446-63.202 52.469-106.13 68.561-23.248 8.7157-52.544 14.461-80.8 15.846-5.06.24805-10.46.56587-12 .70625-1.54.14037-9.82-.19206-18.4-.73873zm151.75-162.77c7.7102-7.92 14.3-14.4 14.644-14.4.34389 0 3.8114 4.86 7.7056 10.8 7.8621 11.992 7.0578 11.488 15.897 9.9617 2.64-.45596 6.9509-1.1948 9.5798-1.6418 2.6289-.44702 4.8833-.91629 5.0098-1.0428.12653-.12653-1.2795-3.5442-3.1245-7.5948l-3.3546-7.3647 1.3444-5.3588c.73944-2.9474 2.4152-9.1388 3.724-13.759 4.6455-16.399 6.5894-24.098 6.1858-24.502-.22488-.22488-1.0739-.0551-1.8868.37728-.81285.43239-6.8779 2.66-13.478 4.9502-13.905 4.8252-24.291 9.344-31.482 13.698-2.795 1.6922-5.3382 3.0767-5.6516 3.0767-.31343 0-5.2942 4.5095-11.068 10.021-9.067 8.6549-23.866 25.998-28.265 33.126l-1.2671 2.0527 10.067.87522c5.5369.48138 10.367.93138 10.735 1 .36708.0686 6.9758-6.3552 14.686-14.275zm-118.56-41.646c1.7305-4.3792 2.9473-7.1894 6.4853-14.978 1.0552-2.323 1.9186-4.408 1.9186-4.6334 0-.2253 1.1134-2.8246 2.4744-5.7763 4.6643-10.116 6.1554-13.372 7.7718-16.967.89028-1.98 2.7291-6.015 4.0862-8.9666 1.3571-2.9516 2.4675-5.7204 2.4675-6.1528 0-2.0047 1.9373-1.4804 6.1838 1.6735 2.5389 1.8857 6.6714 4.8724 9.1834 6.6372s6.832 4.8855 9.6 6.935c6.4722 4.792 15.468 9.617 22.933 12.3 8.4804 3.048 31.3 7.091 31.3 5.5457 0-.56473-1.577-3.0793-8.2607-13.172-10.621-16.038-12.329-18.158-15.071-18.706-1.394-.27879-3.8106-1.4939-5.3703-2.7003-1.5597-1.2063-3.6258-2.7334-4.5914-3.3934s-5.8396-4.26-10.831-8c-10.415-7.8034-11.095-8.229-21.875-13.682-11.545-5.84-30.747-12.763-38.8-13.989-1.98-.30139-4.2428-.87815-5.0285-1.2817-1.7007-.87355-21.512-3.8546-22.316-3.3579-.5578.34474 3.8635 9.9557 4.9273 10.711.30989.22 1.2093 2.11 1.9987 4.2.78944 2.09 1.7464 3.8 2.1266 3.8.38023 0 .69132.50344.69132 1.1188s1.0254 3.068 2.2786 5.4505c2.4163 4.5935 4.549 14.812 5.3075 25.431.77722 10.88 2.0552 25.879 2.863 33.6.96985 9.2699 4.0775 23.287 5.0886 22.952.40575-.1343 1.512-2.2035 2.4584-4.5983zm-62.796-177.64c-3.74-.37107-10.58-1.0286-15.2-1.4612-17.627-1.6504-32.303-6.9527-40.002-14.452-10.093-9.8306-7.7644-25.812 5.7406-39.404 14.982-15.079 33.476-26.048 56.194-33.327 15.62-5.0055 40.034-7.7447 63.193-7.09 10.369.29314 13.103.65891 19.356 2.5897 4.0048 1.2366 8.1211 2.8818 9.1475 3.6559l1.866 1.4076-1.0309 12.685c-2.1636 26.624-2.3668 29.727-2.5081 38.285-.22341 13.535-.0192 13.133-8.756 17.226-13.682 6.4098-33.599 12.271-44.4 13.066-4.6905.34524-12.018 1.865-27.832 5.7728-4.3076 1.0644-8.0876 1.8872-8.4 1.8283-.31238-.0589-3.628-.41068-7.368-.78176z" fill="#97c748"/><path d="m271.2 535.57c-17.198-1.0958-19.426-1.3488-32.8-3.7249-30.5-5.4189-53.644-13.134-81.303-27.102-12.933-6.5311-13.931-7.1151-29.331-17.148-15.527-10.115-14.954-9.4641-16.519-18.8-.55322-3.3-1.5631-7.7459-2.2442-9.8798-1.322-4.1419-.81832-5.2793 2.3508-5.308.74403-.006 1.5508-.33268 1.7929-.72433.24205-.39164 3.0533-1.3408 6.2472-2.1093 3.1939-.76846 6.1671-1.6568 6.6071-1.9741s3.32-1.2355 6.4-2.0404c8.0033-2.0917 10.981-3.4218 10.271-4.5883-.32663-.53669-2.266-3.4958-4.3097-6.5758-2.0437-3.08-4.401-6.7475-5.2384-8.15s-6.3825-9.2927-12.323-17.534-11.012-15.301-11.271-15.689c-.25917-.38775-5.2992-1.2167-11.2-1.8422-5.9008-.62544-12.709-1.5392-15.129-2.0306-2.42-.49141-8.72-1.7526-14-2.8027-22.745-4.5235-36.417-8.0692-37.658-9.7659-.52147-.71315-1.5711-3.2728-2.3324-5.6882-1.3239-4.2-1.3215-4.4375.05578-5.4446 1.8069-1.3212 6.9925-1.2818 14.734.11193 12.46 2.2432 26.845 5.1079 28.026 5.5813.67434.2703 4.9943 1.1704 9.6 2.0002 4.6057.82982 11.074 2.0584 14.374 2.7303 8.0343 1.6357 23.817 3.8857 26.8 3.8206 1.32-.0288 5.7688-.4919 9.8863-1.0291l7.4863-.97674-.53866-9.2458c-.29625-5.0852-.71537-9.8632-.93137-10.618-.4352-1.5207-2.2717-1.9272-11.903-2.6345-13.634-1.0013-26.8-3.1622-26.8-4.3986 0-.46684 3.4982-.92495 25.455-3.3334 6.8508-.75148 8.4597-1.1908 9.46-2.5834 1.5631-2.1761 11.859-19.312 13.604-22.643.73923-1.4106 1.8321-2.7521 2.4286-2.981.5965-.2289 3.5074.49653 6.4686 1.6121s7.5441 2.7774 10.184 3.693c2.64.91562 5.16 1.9403 5.6 2.2772.44.33682 2.9557 1.2369 5.5904 2.0001 2.6347.76326 5.3347 1.6663 6 2.0067 1.0663.54562 5.0648 1.8098 25.21 7.9704 2.64.80736 8.04 2.4181 12 3.5794 3.96 1.1613 10.08 2.9603 13.6 3.9977 3.52 1.0374 8.38 2.3211 10.8 2.8525 2.42.53146 4.76 1.2184 5.2 1.5266.44.30819 3.86 1.2217 7.6 2.0301 3.74.80837 7.16 1.7384 7.6 2.0668 1.4933 1.1144 11.976 1.6138 17.2.81943 2.86-.43493 8.26-1.4612 12-2.2806 6.4329-1.4094 6.785-1.5955 6.5219-3.4477-.15294-1.0769-.5553-2.3179-.89415-2.7579s-1.2317-2.78-1.984-5.2c-.75237-2.42-1.5851-4.94-1.8506-5.6-.26543-.66-1.7793-4.98-3.3642-9.6l-2.8816-8.4-5.1732-.57336c-6.7518-.74832-22.016-2.1341-33.574-3.0481-5.06-.40012-22.5-1.0882-38.756-1.5291l-29.556-.8016-5.512-5.4239c-9.9766-9.8172-15.308-18.561-19.302-31.654-2.1682-7.1082-2.5126-9.3703-1.4267-9.3703.35638 0 2.2086-2.3567 4.1162-5.2371 5.816-8.7824 12.132-13.086 23.549-16.044 2.6795-.69432 5.2351-1.5001 5.6792-1.7906 1.4395-.94169 27.791-6.621 42.807-9.226 8.7366-1.5156 5.4438-1.9384-19.6-2.517-31.974-.73866-54.698-4.4502-59.789-9.7652-10.088-10.532-3.2967-26.474 18.189-42.694 15.576-11.759 34.79-18.854 59.6-22.006l10-1.2707 18.181 8.8757c9.9994 4.8816 18.361 8.8757 18.581 8.8757.32146 0 18.956 8.1428 25.638 11.203.88.40304 9.16 4.1187 18.4 8.257 9.24 4.1383 23.597 10.928 31.904 15.088l15.104 7.5637-6.1029 2.744c-3.3566 1.5092-6.1033 2.9731-6.1038 3.2532-.00048.28007.98912.67946 2.1991.88756 1.21.20808 7.06 1.1848 13 2.1704s11.16 2.0841 11.6 2.4409c.44.35685 3.14 1.2532 6 1.9919 2.86.73868 5.56 1.6089 6 1.9338s2.6 1.2475 4.8 2.0502 4.7101 1.9447 5.578 2.5378c.8679.59304 2.1018 1.0782 2.7419 1.0782.64014 0 5.15-2.4676 10.022-5.4835 8.8619-5.4859 21.88-12.916 22.628-12.916.21865 0 2.1932-.90192 4.388-2.0043 10.192-5.1191 22.536-9.1363 25.442-8.2794 1.1.32443 3.26.92192 4.8 1.3278l2.8.73791-3.2 1.3292c-1.76.73105-3.92 1.7483-4.8 2.2606-1.9326 1.125-6.0658 3.1203-10.4 5.0207-5.7225 2.5091-17.522 8.3917-20.8 10.37-1.76 1.0621-4.6007 2.7082-6.3127 3.658-1.712.94982-3.512 2.0491-4 2.4428-3.2052 2.5859-8.6013 6.3366-9.1164 6.3366-.33841 0-1.2298.63-1.9808 1.4-.75101.77-2.5221 2.3-3.9358 3.4-1.4137 1.1-8.409 7.7157-15.545 14.702-12.803 12.533-13.013 12.695-15.82 12.168-1.565-.29359-3.1252-1.0106-3.4672-1.5932-.34197-.5827-1.8642-1.6949-3.3826-2.4716s-3.1908-1.8154-3.7164-2.3084c-2.6679-2.5026-16.545-12.614-20.742-15.114-13.117-7.8121-38.399-17.812-49.18-19.454-1.98-.30139-4.2428-.87815-5.0285-1.2817-1.7007-.87355-21.512-3.8546-22.316-3.3579-.5578.34474 3.8635 9.9557 4.9273 10.711.30989.22 1.2093 2.11 1.9987 4.2.78944 2.09 1.7464 3.8 2.1266 3.8.38023 0 .69132.50344.69132 1.1188s1.0713 3.1553 2.3806 5.6444c1.6312 3.1009 2.6335 6.5423 3.1838 10.932.44178 3.5232.95433 6.6532 1.139 6.9556.39653.64916 1.0137 9.1958 1.7438 24.15.29002 5.94 1.5368 16.899 2.7706 24.353 1.9799 11.962 2.6343 14.325 5.5736 20.121 5.1713 10.199 12.521 20.947 18.822 27.525 3.1608 3.3 7.1657 7.5242 8.8996 9.3871l3.1527 3.3871 2.9564-8.5871c1.626-4.7229 3.6579-10.567 4.5153-12.987.85741-2.42 3.4372-9.8 5.7329-16.4 2.2957-6.6 4.839-13.51 5.6519-15.356.81285-1.8458 1.4779-3.5855 1.4779-3.8659 0-.59851 3.9582-9.9984 6.981-16.578 1.1623-2.53 2.369-4.6 2.6817-4.6.89724 0 16.547 16.637 21.064 22.394 8.8329 11.256 16.48 24.503 19 32.914.99591 3.324 1.2429 2.8974-10.822 18.692l-6.7221 8.8 10.909.85776c11.878.93397 11.83.93878 52.509-5.2727 8.8-1.3437 21.76-3.3096 28.8-4.3687 31.811-4.7854 60.871-9.7185 62.242-10.566.51232-.31663.6266.3511.3124 1.8251-.27253 1.2784-1.0513 4.9237-1.7306 8.1006-3.5125 16.427-26.139 49.826-51.098 75.424-30.661 31.446-63.202 52.469-106.13 68.561-23.248 8.7157-52.544 14.461-80.8 15.846-5.06.24805-10.46.56587-12 .70625-1.54.14037-9.82-.19206-18.4-.73873zm198.94-176.56c.21802-.99952.71557-2.5373 1.1057-3.4173.3901-.88 1.4533-4.48 2.3628-8 2.3762-9.1971 5.3023-20.116 6.7376-25.142.682-2.388 1.0575-4.5243.8344-4.7474-.45581-.45581-18.078 5.2391-21.178 6.8438-1.1.56955-2.5163 1.0378-3.1474 1.0405-.63108.002-2.6111.69274-4.4 1.5334-10.043 4.7196-17.343 8.3474-21.146 10.51-2.3615 1.3426-4.3854 2.3332-4.4976 2.2014-.39907-.46906-4.343-12.389-7.2261-21.84-1.6108-5.28-3.4213-11.04-4.0234-12.8-.60214-1.76-1.4322-4.5208-1.8446-6.135l-.7498-2.9351 6.9176-.58026c9.372-.78615 38.667.16534 48.518 1.5759 4.4.63001 12.32 1.7255 17.6 2.4345 8.8836 1.1928 27.681 4.4366 28.246 4.8742.27672.21443-12.719 19.606-18.474 27.566-4.2053 5.8166-19.536 23.199-23.476 26.617-2.481 2.1527-2.544 2.1644-2.1591.4zm-228.54-205.51c-3.74-.37107-10.58-1.0286-15.2-1.4612-17.627-1.6504-32.303-6.9527-40.002-14.452-10.093-9.8306-7.7644-25.812 5.7406-39.404 14.982-15.079 33.476-26.048 56.194-33.327 15.62-5.0055 40.034-7.7447 63.193-7.09 10.369.29314 13.103.65891 19.356 2.5897 4.0048 1.2366 8.1211 2.8818 9.1475 3.6559l1.866 1.4076-1.0309 12.685c-2.1636 26.624-2.3668 29.727-2.5081 38.285-.22341 13.535-.0192 13.133-8.756 17.226-13.682 6.4098-33.599 12.271-44.4 13.066-4.6905.34524-12.018 1.865-27.832 5.7728-4.3076 1.0644-8.0876 1.8872-8.4 1.8283-.31238-.0589-3.628-.41068-7.368-.78176z" fill="#af8c65"/><path d="m265.2 535.21c-19.476-1.4918-44.134-6.0632-61.2-11.346-17.897-5.54-28.718-9.9888-47.99-19.731-12.417-6.2764-13.231-6.753-28.244-16.534-15.527-10.115-14.954-9.4641-16.519-18.8-.55322-3.3-1.5631-7.7459-2.2442-9.8798-1.322-4.1419-.81832-5.2793 2.3508-5.308.74403-.006 1.5508-.33268 1.7929-.72433.24205-.39164 3.0533-1.3408 6.2472-2.1093 3.1939-.76846 6.1671-1.6568 6.6071-1.9741s3.32-1.2355 6.4-2.0404c8.0033-2.0917 10.981-3.4218 10.271-4.5883-.32663-.53669-2.266-3.4958-4.3097-6.5758-2.0437-3.08-4.401-6.7475-5.2384-8.15s-6.3825-9.2927-12.323-17.534-11.012-15.301-11.271-15.689c-.25917-.38775-5.2992-1.2167-11.2-1.8422-5.9008-.62544-12.709-1.5392-15.129-2.0306-2.42-.49141-8.72-1.7526-14-2.8027-11.311-2.2495-20.589-4.329-30.08-6.7418l-6.8804-1.749-1.6882-3.8664c-3.1668-7.2525-3.1332-7.756.59077-8.8717 2.5375-.76025 4.3346-.77528 7.8732-.0658 2.5218.5056 8.7252 1.6486 13.785 2.5399s9.74 1.8301 10.4 2.0862c2.4528.95146 38.737 7.8397 49.904 9.474 6.2095.90871 9.8872.98456 17.151.35372 5.0856-.44167 9.5834-1.0113 9.9953-1.2658.428-.26452.53472-2.8152.24909-5.954-.27483-3.0201-.72808-8.0112-1.0072-11.091s-.74569-5.6-1.0368-5.6c-2.0964 0-35.655-4.1326-35.949-4.427-.72606-.72606.42946-.92306 13.494-2.3005 18.991-2.0024 19.075-2.0185 19.631-3.7713.26814-.84485 1.8969-3.7782 3.6196-6.5186 1.7226-2.7404 3.8481-6.303 4.7233-7.917 2.0102-3.7069 6.3115-10.101 7.1391-10.612.34554-.21355 3.4764.70107 6.9574 2.0325 3.481 1.3314 8.3092 3.117 10.729 3.968 2.42.85101 5.12 1.896 6 2.3222 1.9536.94616 18.696 6.4486 29.6 9.728 21.475 6.4589 34.34 10.209 42.4 12.36 25.251 6.7381 30.985 7.6326 38.246 5.9659 1.8448-.42349 6.5943-1.3669 10.554-2.0964 3.96-.72954 7.4997-1.6007 7.8659-1.9359.36625-.33521-1.504-6.6818-4.1561-14.104-2.6521-7.4217-5.2545-15.01-5.7831-16.863-.91854-3.2195-1.1241-3.3888-4.6439-3.8271-2.0255-.25222-6.3828-.81085-9.6828-1.2414-7.9432-1.0363-41.006-2.9018-70.8-3.9948l-24-.88044-5.8671-5.7438c-10.052-9.8403-15.017-17.974-18.648-30.544-.88954-3.08-1.8096-6.23-2.0446-7-.51234-1.6788-1.4737-1.6677 14.559-.16938 22.501 2.1027 40.648 2.714 81.4 2.742l39.8.0274.0174 2.6c.0656 9.7562 2.6756 38.896 4.3173 48.2 1.6303 9.2399 2.5546 12.341 5.2816 17.721 5.145 10.151 12.504 20.909 18.797 27.479 3.1608 3.3 7.1657 7.5242 8.8997 9.3871l3.1527 3.3871 2.9564-8.5871c1.626-4.7229 3.6579-10.567 4.5154-12.987.85741-2.42 3.4372-9.8 5.7329-16.4s4.839-13.51 5.6519-15.356c.81285-1.8458 1.4779-3.5855 1.4779-3.8659 0-.59851 3.9582-9.9984 6.981-16.578 1.1623-2.53 2.369-4.6 2.6817-4.6.31266 0 4.2607 3.8672 8.7735 8.5939 13.662 14.309 21.121 24.524 27.199 37.247 5.5573 11.634 5.5788 11.972 1.1277 17.759-9.034 11.744-14.891 19.737-14.637 19.975.15114.14199 6.2148.67417 13.475 1.1826s17.52 1.6256 22.8 2.4825c16.549 2.6859 31.678 3.9934 37.303 3.224 2.8034-.38347 10.857-1.4501 17.897-2.3702s14.24-2.0387 16-2.4857 7.7-1.523 13.2-2.3912c9.511-1.5014 25.534-4.7856 29.4-6.0261 2.4891-.79869 2.3206.17868-1.2788 7.4173-21.444 43.126-63.964 87.061-108.52 112.13-34.107 19.192-67.347 30.14-106 34.914-11.305 1.3961-43.674 2.0686-55.6 1.1551zm204.94-176.19c.21802-.99952.71557-2.5373 1.1057-3.4173.3901-.88 1.4533-4.48 2.3628-8 2.3762-9.1971 5.3023-20.116 6.7376-25.142.682-2.388 1.0575-4.5243.8344-4.7474-.45581-.45581-18.078 5.2391-21.178 6.8438-1.1.56955-2.5163 1.0378-3.1474 1.0405-.63108.002-2.6111.69274-4.4 1.5334-10.043 4.7196-17.343 8.3474-21.146 10.51-2.3615 1.3426-4.3854 2.3332-4.4976 2.2014-.39907-.46906-4.343-12.389-7.2261-21.84-1.6108-5.28-3.4213-11.04-4.0234-12.8-.60214-1.76-1.4322-4.5208-1.8446-6.135l-.7498-2.9351 6.9176-.58026c9.372-.78615 38.667.16534 48.518 1.5759 4.4.63001 12.32 1.7255 17.6 2.4345 8.8836 1.1928 27.681 4.4366 28.246 4.8742.27672.21443-12.719 19.606-18.474 27.566-4.2053 5.8166-19.536 23.199-23.476 26.617-2.481 2.1527-2.544 2.1644-2.1591.4zm-260.94-127.07c-26.999-.91713-48.38-4.5431-53.83-9.1289-3.1646-2.6628-4.4884-7.1876-3.9748-13.586.52686-6.5636 3.5408-11.864 11.146-19.603 6.043-6.1492 17.59-15.033 20.484-15.759 1.656-.41564 14.178 2.9719 19.774 5.3494.88.37387 3.76 1.276 6.4 2.0048s5.16 1.6076 5.6 1.9529c.44.3453 2.96 1.2453 5.6 2 2.64.75471 5.16 1.6505 5.6 1.9907.44.3402 2.78 1.2538 5.2 2.0302s4.76 1.6772 5.2 2.0016 2.24 1.0498 4 1.6118 4.4547 1.689 5.9882 2.5043c1.5335.81528 3.0973 1.4823 3.4752 1.4823 1.484 0 19.868 9.3367 29.337 14.899 10.565 6.2069 20.54 13.473 19.433 14.157-.36269.22416-5.5135.82064-11.446 1.3255-5.9328.50488-12.947 1.2195-15.587 1.588-29.901 4.174-31.197 4.24-62.4 3.1801zm27.2-79.215c-5.72-.34856-12.2-1.0129-14.4-1.4764-2.2-.46345-7.0336-1.4227-10.741-2.1316-3.7078-.70896-7.3078-1.5772-8-1.9294s-3.7584-1.8124-6.8137-3.245c-15.042-7.0524-19.621-18.846-12.894-33.21 4.696-10.028 17.741-22.175 34.049-31.708 14.852-8.6815 27.592-13.615 44-17.038 7.1906-1.5001 20.305-3.5576 20.627-3.236.24267.24266.95569 4.4628 3.5886 21.24 1.044 6.6526 1.3282 57.674.34784 62.469-.64263 3.1431-.60029 3.1269-17.763 6.7876-3.08.65695-8.66 1.8888-12.4 2.7374-3.74.84862-7.34 1.5049-8 1.4584-.66-.0465-5.88-.36976-11.6-.71833z" fill="#c5694e"/><path d="m269.6 535.53c-9.8125-.65942-22.363-2.0925-28.4-3.2428-10.405-1.9826-27.609-5.9308-33.2-7.6192-10.037-3.0309-22.808-7.2901-23.6-7.8708-.44-.32258-2.24-1.0398-4-1.5939s-4.1-1.4834-5.2-2.0652-6.32-3.087-11.6-5.5673c-13.337-6.2649-33.018-17.567-39.214-22.518-.44748-.35764-2.8642-2.035-5.3706-3.7274-2.5063-1.6924-4.7301-3.6724-4.9418-4.4-.63543-2.1843-2.0859-10.778-1.8576-11.006.11668-.11667 2.3657 2.447 4.9979 5.697 4.6807 5.7794 4.8669 5.91 8.4826 5.9476 2.1299.0222 7.5554-1.1852 12.8-2.8484 28.816-9.1383 27.347-8.874 35.598-6.4045 3.5315 1.057 8.14 2.705 10.241 3.6622 2.1011.95718 4.266 1.5693 4.8107 1.3603 1.0591-.40643 3.659-21.961 3.6553-30.304-.006-12.464-3.8776-29.32-9.1044-39.635-2.1043-4.1526-2.1608-4.1932-5.9112-4.2364-11.84-.13645-62.616-4.2746-67.787-5.5246-1.76-.42546-5.9-.99239-9.2-1.2599-7.0652-.57261-26.342-3.7669-36-5.9655-3.74-.85136-9.32-2.1183-12.4-2.8154s-8.8853-2.0224-12.901-2.945l-7.3006-1.6775-1.668-3.8201c-3.1446-7.2017-3.1093-7.7108.61096-8.8254 2.5375-.76025 4.3346-.77528 7.8732-.0658 2.5218.5056 8.7252 1.6486 13.785 2.5399s9.74 1.8301 10.4 2.0862c2.4528.95146 38.737 7.8397 49.904 9.474 6.2095.90871 9.8872.98456 17.151.35372 5.0856-.44167 9.5834-1.0113 9.9953-1.2658.428-.26452.53472-2.8152.24909-5.954-.27483-3.0201-.72808-8.0112-1.0072-11.091s-.74569-5.6-1.0368-5.6c-2.0964 0-35.655-4.1326-35.949-4.427-.72606-.72606.42946-.92306 13.494-2.3005 18.991-2.0024 19.075-2.0185 19.631-3.7713.26814-.84485 1.8969-3.7782 3.6196-6.5186 1.7226-2.7404 3.8481-6.303 4.7233-7.917 2.0102-3.7069 6.3115-10.101 7.1391-10.612.34554-.21355 3.4764.70107 6.9574 2.0325 3.481 1.3314 8.3092 3.117 10.729 3.968 2.42.85101 5.12 1.896 6 2.3222 1.9536.94616 18.696 6.4486 29.6 9.728 21.475 6.4589 34.34 10.209 42.4 12.36 25.251 6.7381 30.985 7.6326 38.246 5.9659 1.8448-.42349 6.5943-1.3669 10.554-2.0964 3.96-.72954 7.4997-1.6007 7.8659-1.9359.36625-.33521-1.504-6.6818-4.1561-14.104-2.6521-7.4217-5.2545-15.01-5.7831-16.863-.91854-3.2195-1.1241-3.3888-4.6439-3.8271-2.0255-.25222-6.3828-.81085-9.6828-1.2414-7.9432-1.0363-41.006-2.9018-70.8-3.9948l-24-.88044-5.8671-5.7438c-10.052-9.8403-15.017-17.974-18.648-30.544-.88954-3.08-1.8096-6.23-2.0446-7-.51234-1.6788-1.4737-1.6677 14.559-.16938 22.501 2.1027 40.648 2.714 81.4 2.742l39.8.0274.0174 2.6c.0656 9.7562 2.6756 38.896 4.3173 48.2 1.6303 9.2399 2.5546 12.341 5.2816 17.721 5.145 10.151 12.504 20.909 18.797 27.479 3.1608 3.3 7.1657 7.5242 8.8997 9.3871l3.1527 3.3871 2.9564-8.5871c1.626-4.7229 3.6579-10.567 4.5154-12.987.85741-2.42 3.4372-9.8 5.7329-16.4s4.839-13.51 5.6519-15.356c.81285-1.8458 1.4779-3.5855 1.4779-3.8659 0-.59851 3.9582-9.9984 6.981-16.578 1.1623-2.53 2.369-4.6 2.6817-4.6.31266 0 4.2607 3.8672 8.7735 8.5939 13.662 14.309 21.121 24.524 27.199 37.247 5.5573 11.634 5.5788 11.972 1.1277 17.759-9.034 11.744-14.891 19.737-14.637 19.975.15114.14199 6.2148.67417 13.475 1.1826s17.52 1.6256 22.8 2.4825c16.549 2.6859 31.678 3.9934 37.303 3.224 2.8034-.38347 10.857-1.4501 17.897-2.3702s14.24-2.0387 16-2.4857 7.7-1.523 13.2-2.3912c9.511-1.5014 25.534-4.7856 29.4-6.0261 2.4891-.79869 2.3206.17868-1.2788 7.4173-21.444 43.126-63.964 87.061-108.52 112.13-34.107 19.192-67.347 30.14-106 34.914-8.9526 1.1056-42.363 2.0666-51.2 1.4727zm200.54-176.51c.21802-.99952.71557-2.5373 1.1057-3.4173.3901-.88 1.4533-4.48 2.3628-8 2.3762-9.1971 5.3023-20.116 6.7376-25.142.682-2.388 1.0575-4.5243.8344-4.7474-.45581-.45581-18.078 5.2391-21.178 6.8438-1.1.56955-2.5163 1.0378-3.1474 1.0405-.63108.002-2.6111.69274-4.4 1.5334-10.043 4.7196-17.343 8.3474-21.146 10.51-2.3615 1.3426-4.3854 2.3332-4.4976 2.2014-.39907-.46906-4.343-12.389-7.2261-21.84-1.6108-5.28-3.4213-11.04-4.0234-12.8-.60214-1.76-1.4322-4.5208-1.8446-6.135l-.7498-2.9351 6.9176-.58026c9.372-.78615 38.667.16534 48.518 1.5759 4.4.63001 12.32 1.7255 17.6 2.4345 8.8836 1.1928 27.681 4.4366 28.246 4.8742.27672.21443-12.719 19.606-18.474 27.566-4.2053 5.8166-19.536 23.199-23.476 26.617-2.481 2.1527-2.544 2.1644-2.1591.4zm-260.94-127.07c-26.999-.91713-48.38-4.5431-53.83-9.1289-3.1646-2.6628-4.4884-7.1876-3.9748-13.586.52686-6.5636 3.5408-11.864 11.146-19.603 6.043-6.1492 17.59-15.033 20.484-15.759 1.656-.41564 14.178 2.9719 19.774 5.3494.88.37387 3.76 1.276 6.4 2.0048s5.16 1.6076 5.6 1.9529c.44.3453 2.96 1.2453 5.6 2 2.64.75471 5.16 1.6505 5.6 1.9907.44.3402 2.78 1.2538 5.2 2.0302s4.76 1.6772 5.2 2.0016 2.24 1.0498 4 1.6118 4.4547 1.689 5.9882 2.5043c1.5335.81528 3.0973 1.4823 3.4752 1.4823 1.484 0 19.868 9.3367 29.337 14.899 10.565 6.2069 20.54 13.473 19.433 14.157-.36269.22416-5.5135.82064-11.446 1.3255-5.9328.50488-12.947 1.2195-15.587 1.588-29.901 4.174-31.197 4.24-62.4 3.1801zm27.2-79.215c-5.72-.34856-12.2-1.0129-14.4-1.4764-2.2-.46345-7.0336-1.4227-10.741-2.1316-3.7078-.70896-7.3078-1.5772-8-1.9294s-3.7584-1.8124-6.8137-3.245c-15.042-7.0524-19.621-18.846-12.894-33.21 4.696-10.028 17.741-22.175 34.049-31.708 14.852-8.6815 27.592-13.615 44-17.038 7.1906-1.5001 20.305-3.5576 20.627-3.236.24267.24266.95569 4.4628 3.5886 21.24 1.044 6.6526 1.3282 57.674.34784 62.469-.64263 3.1431-.60029 3.1269-17.763 6.7876-3.08.65695-8.66 1.8888-12.4 2.7374-3.74.84862-7.34 1.5049-8 1.4584-.66-.0465-5.88-.36976-11.6-.71833z" fill="#82b63f"/><path d="m269.6 535.53c-9.8125-.65942-22.363-2.0925-28.4-3.2428-10.405-1.9826-27.609-5.9308-33.2-7.6192-10.037-3.0309-22.808-7.2901-23.6-7.8708-.44-.32258-2.24-1.0398-4-1.5939s-4.1-1.4834-5.2-2.0652-6.32-3.087-11.6-5.5673c-13.337-6.2649-33.018-17.567-39.214-22.518-.44748-.35764-2.8642-2.035-5.3706-3.7274-2.5063-1.6924-4.7301-3.6724-4.9418-4.4-.63543-2.1843-2.0859-10.778-1.8576-11.006.11668-.11667 2.3657 2.447 4.9979 5.697 4.6807 5.7794 4.8669 5.91 8.4826 5.9476 2.1299.0222 7.5554-1.1852 12.8-2.8484 28.816-9.1383 27.347-8.874 35.598-6.4045 3.5315 1.057 8.14 2.705 10.241 3.6622 2.1011.95718 4.266 1.5693 4.8107 1.3603 1.0591-.40643 3.659-21.961 3.6553-30.304-.006-12.464-3.8776-29.32-9.1044-39.635-2.1043-4.1526-2.1608-4.1932-5.9112-4.2364-11.84-.13645-62.616-4.2746-67.787-5.5246-1.76-.42546-5.9-.99239-9.2-1.2599-7.0652-.57261-26.342-3.7669-36-5.9655-3.74-.85136-9.32-2.1183-12.4-2.8154s-8.8853-2.0224-12.901-2.945l-7.3006-1.6775-1.668-3.8201c-3.1446-7.2017-3.1093-7.7108.61096-8.8254 2.5375-.76025 4.3346-.77528 7.8732-.0658 2.5218.5056 8.7252 1.6486 13.785 2.5399s9.74 1.8301 10.4 2.0862c2.4528.95146 38.737 7.8397 49.904 9.474 6.2095.90871 9.8872.98456 17.151.35372 5.0856-.44167 9.5834-1.0113 9.9953-1.2658.428-.26452.53472-2.8152.24909-5.954-.27483-3.0201-.72808-8.0112-1.0072-11.091s-.74569-5.6-1.0368-5.6c-2.0964 0-35.655-4.1326-35.949-4.427-.72606-.72606.42946-.92306 13.494-2.3005 18.991-2.0024 19.075-2.0185 19.631-3.7713.26814-.84485 1.8969-3.7782 3.6196-6.5186 1.7226-2.7404 3.8481-6.303 4.7233-7.917 2.0102-3.7069 6.3115-10.101 7.1391-10.612.34554-.21355 3.4764.70107 6.9574 2.0325 3.481 1.3314 8.3092 3.117 10.729 3.968 2.42.85101 5.12 1.896 6 2.3222 3.6984 1.7912 24.385 8.2715 57.797 18.106 19.906 5.8589 40.163 10.718 44.679 10.718 3.4956 0 9.7242-1.0187 21.523-3.5202 3.9184-.83075 4.7792-1.2988 4.6869-2.5487-.0622-.84208-2.5822-8.6316-5.6-17.31l-5.4869-15.779-3.6-.44811c-1.98-.24646-6.3-.80037-9.6-1.2309-7.9432-1.0363-41.006-2.9018-70.8-3.9948l-24-.88044-5.8671-5.7438c-10.052-9.8403-15.017-17.974-18.648-30.544-.88954-3.08-1.8096-6.23-2.0446-7-.51234-1.6788-1.4737-1.6677 14.559-.16938 22.449 2.0979 40.622 2.714 80.884 2.742l39.284.0274.91363 8.2c.50249 4.51 1.294 14.32 1.7588 21.8.46487 7.48 1.1615 15.22 1.5481 17.2 2.91 14.904 3.9198 18.279 7.1805 24 6.3061 11.063 12.223 19.56 17.269 24.8 2.7545 2.86 6.6546 6.9903 8.6668 9.1785 2.4293 2.6417 3.9263 3.7107 4.4554 3.1816.74602-.74601 6.6662-16.947 10.802-29.56 3.4384-10.487 9.0543-25.581 12.65-34 1.9731-4.62 3.8267-9.1775 4.119-10.128 1.2732-4.1392 2.3692-3.7287 9.3468 3.5013 13.396 13.881 21.545 24.809 27.582 36.993 4.2828 8.6421 5.5195 13.031 4.3096 15.291-.48988.91533-4.0431 5.6879-7.896 10.606-6.7344 8.5956-9.3024 12.393-8.738 12.922.14565.13648 6.2048.66416 13.465 1.1726s17.52 1.6256 22.8 2.4825c16.549 2.6859 31.678 3.9934 37.303 3.2239 2.8034-.38347 10.857-1.4501 17.897-2.3702s14.24-2.0387 16-2.4857c1.76-.44697 7.7-1.523 13.2-2.3912 9.511-1.5014 25.534-4.7856 29.4-6.0261 2.4891-.7987 2.3206.17867-1.2788 7.4173-21.444 43.126-63.964 87.061-108.52 112.13-34.107 19.192-67.347 30.14-106 34.914-8.9526 1.1056-42.363 2.0666-51.2 1.4727zm-60.4-303.58c-26.999-.91713-48.38-4.5431-53.83-9.1289-3.1646-2.6628-4.4884-7.1876-3.9748-13.586.52686-6.5636 3.5408-11.864 11.146-19.603 6.043-6.1492 17.59-15.033 20.484-15.759 1.656-.41564 14.178 2.9719 19.774 5.3494.88.37387 3.76 1.276 6.4 2.0048s5.16 1.6076 5.6 1.9529c.44.3453 2.96 1.2453 5.6 2 2.64.75471 5.16 1.6505 5.6 1.9907.44.3402 2.78 1.2538 5.2 2.0302s4.76 1.6772 5.2 2.0016 2.24 1.0498 4 1.6118 4.4547 1.689 5.9882 2.5043c1.5335.81528 3.0973 1.4823 3.4752 1.4823 1.484 0 19.868 9.3367 29.337 14.899 10.565 6.2069 20.54 13.473 19.433 14.157-.36269.22416-5.5135.82064-11.446 1.3255-5.9328.50488-12.947 1.2195-15.587 1.588-29.901 4.174-31.197 4.24-62.4 3.1801zm27.2-79.215c-5.72-.34856-12.2-1.0129-14.4-1.4764-2.2-.46345-7.0336-1.4227-10.741-2.1316-3.7078-.70896-7.3078-1.5772-8-1.9294s-3.7584-1.8124-6.8137-3.245c-15.042-7.0524-19.621-18.846-12.894-33.21 4.696-10.028 17.741-22.175 34.049-31.708 14.852-8.6815 27.592-13.615 44-17.038 7.1906-1.5001 20.305-3.5576 20.627-3.236.24267.24266.95569 4.4628 3.5886 21.24 1.044 6.6526 1.3282 57.674.34784 62.469-.64263 3.1431-.60029 3.1269-17.763 6.7876-3.08.65695-8.66 1.8888-12.4 2.7374-3.74.84862-7.34 1.5049-8 1.4584-.66-.0465-5.88-.36976-11.6-.71833z" fill="#74a63e"/><path d="m269.6 535.53c-9.8125-.65942-22.363-2.0925-28.4-3.2428-10.405-1.9826-27.609-5.9308-33.2-7.6192-10.037-3.0309-22.808-7.2901-23.6-7.8708-.44-.32258-2.24-1.0398-4-1.5939s-4.1-1.4834-5.2-2.0652-6.32-3.087-11.6-5.5673c-13.337-6.2649-33.018-17.567-39.214-22.518-.44748-.35764-2.8642-2.035-5.3706-3.7274-2.5063-1.6924-4.7301-3.6724-4.9418-4.4-.63543-2.1843-2.0859-10.778-1.8576-11.006.11668-.11667 2.3657 2.447 4.9979 5.697 4.6807 5.7794 4.8669 5.91 8.4826 5.9476 2.1299.0222 7.5554-1.1852 12.8-2.8484 28.816-9.1383 27.347-8.874 35.598-6.4045 3.5315 1.057 8.14 2.705 10.241 3.6622 2.1011.95718 4.266 1.5693 4.8107 1.3603 1.0591-.40643 3.659-21.961 3.6553-30.304-.006-12.464-3.8776-29.32-9.1044-39.635-2.1043-4.1526-2.1608-4.1932-5.9112-4.2364-11.84-.13645-62.616-4.2746-67.787-5.5246-1.76-.42546-5.9-.99239-9.2-1.2599-7.0652-.57261-26.342-3.7669-36-5.9655-3.74-.85136-9.32-2.1183-12.4-2.8154s-8.8853-2.0224-12.901-2.945l-7.3006-1.6775-1.668-3.8201c-3.1446-7.2017-3.1093-7.7108.61096-8.8254 2.5375-.76025 4.3346-.77528 7.8732-.0658 2.5218.5056 8.7252 1.6486 13.785 2.5399s9.74 1.8301 10.4 2.0862c2.4528.95146 38.737 7.8397 49.904 9.474 6.2095.90871 9.8872.98456 17.151.35372 5.0856-.44167 9.5834-1.0113 9.9953-1.2658.428-.26452.53472-2.8152.24909-5.954-.27483-3.0201-.72808-8.0112-1.0072-11.091s-.74569-5.6-1.0368-5.6c-2.0964 0-35.655-4.1326-35.949-4.427-.72606-.72606.42946-.92306 13.494-2.3005 18.991-2.0024 19.075-2.0185 19.631-3.7713.26814-.84485 1.8969-3.7782 3.6196-6.5186 1.7226-2.7404 3.8481-6.303 4.7233-7.917 2.0102-3.7069 6.3115-10.101 7.1391-10.612.34554-.21355 3.4764.70107 6.9574 2.0325 3.481 1.3314 8.3092 3.117 10.729 3.968 2.42.85101 5.12 1.896 6 2.3222 1.9536.94616 18.696 6.4486 29.6 9.728 21.475 6.4589 34.34 10.209 42.4 12.36 25.24 6.7352 30.971 7.6299 38.246 5.9709 1.8448-.42075 6.4143-1.3378 10.154-2.038 3.74-.70016 7.362-1.4386 8.049-1.641.84-.24749 1.7092.61632 2.6544 2.638.77296 1.6533 4.5067 8.6441 8.2972 15.535 6.0859 11.064 7.1788 12.599 9.3456 13.128 1.3496.3292 16.314.68126 33.254.78237 33.281.19863 50.937 1.1626 66 3.6034 16.574 2.6856 31.682 3.9903 37.303 3.2215 2.8034-.38348 10.857-1.4501 17.897-2.3702 7.04-.92017 14.24-2.0387 16-2.4857s7.7-1.523 13.2-2.3912c9.511-1.5014 25.534-4.7856 29.4-6.0261 2.4891-.79869 2.3206.17867-1.2788 7.4173-21.444 43.126-63.964 87.061-108.52 112.13-34.107 19.192-67.347 30.14-106 34.914-8.9526 1.1056-42.363 2.0666-51.2 1.4727zm18.4-216.83c-14.486-2.0474-39.515-3.6609-79.6-5.1314l-24-.88044-5.8671-5.7438c-10.052-9.8403-15.017-17.974-18.648-30.544-.88954-3.08-1.8096-6.23-2.0446-7-.51234-1.6788-1.4737-1.6677 14.559-.16938 22.461 2.099 40.628 2.714 81 2.742l39.4.02737v23.6c0 26.012.45093 23.842-4.8 23.099zm-78.8-86.75c-26.999-.91713-48.38-4.5431-53.83-9.1289-3.1646-2.6628-4.4884-7.1876-3.9748-13.586.52686-6.5636 3.5408-11.864 11.146-19.603 6.043-6.1492 17.59-15.033 20.484-15.759 1.656-.41564 14.178 2.9719 19.774 5.3494.88.37387 3.76 1.276 6.4 2.0048s5.16 1.6076 5.6 1.9529c.44.3453 2.96 1.2453 5.6 2 2.64.75471 5.16 1.6505 5.6 1.9907.44.3402 2.78 1.2538 5.2 2.0302s4.76 1.6772 5.2 2.0016 2.24 1.0498 4 1.6118 4.4547 1.689 5.9882 2.5043c1.5335.81528 3.0973 1.4823 3.4752 1.4823 1.484 0 19.868 9.3367 29.337 14.899 10.565 6.2069 20.54 13.473 19.433 14.157-.36269.22416-5.5135.82064-11.446 1.3255-5.9328.50488-12.947 1.2195-15.587 1.588-29.901 4.174-31.197 4.24-62.4 3.1801zm27.2-79.215c-5.72-.34856-12.2-1.0129-14.4-1.4764-2.2-.46345-7.0336-1.4227-10.741-2.1316-3.7078-.70896-7.3078-1.5772-8-1.9294s-3.7584-1.8124-6.8137-3.245c-15.042-7.0524-19.621-18.846-12.894-33.21 4.696-10.028 17.741-22.175 34.049-31.708 14.852-8.6815 27.592-13.615 44-17.038 7.1906-1.5001 20.305-3.5576 20.627-3.236.24267.24266.95569 4.4628 3.5886 21.24 1.044 6.6526 1.3282 57.674.34784 62.469-.64263 3.1431-.60029 3.1269-17.763 6.7876-3.08.65695-8.66 1.8888-12.4 2.7374-3.74.84862-7.34 1.5049-8 1.4584-.66-.0465-5.88-.36976-11.6-.71833z" fill="#9c6e4e"/><path d="m267.91 535.14c-10.816-.62066-14.901-1.1105-29.506-3.5376-8.7022-1.4462-21.827-4.4386-30-6.8399-9.0966-2.6727-23.137-7.3324-24-7.9652-.44-.32258-2.24-1.0398-4-1.5939s-4.1-1.4834-5.2-2.0652-6.32-3.087-11.6-5.5673c-13.337-6.2649-33.018-17.567-39.214-22.518-.44748-.35764-2.8642-2.035-5.3706-3.7274-2.5063-1.6924-4.7301-3.6724-4.9418-4.4-.63543-2.1843-2.0859-10.778-1.8576-11.006.11668-.11667 2.3657 2.447 4.9979 5.697 4.6807 5.7794 4.8669 5.91 8.4826 5.9476 2.1299.0222 7.5554-1.1852 12.8-2.8484 28.816-9.1383 27.347-8.874 35.598-6.4045 3.5315 1.057 8.14 2.705 10.241 3.6622 2.1011.95718 4.266 1.5693 4.8107 1.3603 1.0591-.40643 3.659-21.961 3.6553-30.304-.006-12.464-3.8776-29.32-9.1044-39.635-2.1043-4.1526-2.1608-4.1932-5.9112-4.2364-11.616-.13388-62.116-4.2438-68.187-5.5494-1.98-.42584-10.26-1.7068-18.4-2.8464-8.14-1.1397-17.68-2.7368-21.2-3.5492-3.52-.81236-7.66-1.7072-9.2-1.9885-4.4228-.80788-19.991-4.4883-24.489-5.7892-3.9772-1.1504-4.1461-1.3228-6.2-6.324-1.1613-2.8278-2.1114-5.2979-2.1114-5.4893 0-1.8367 16.274-.57203 26.571 2.0648 1.634.41846 6.674 1.4714 11.2 2.34 4.526.86854 13.449 2.6699 19.829 4.003 24.052 5.0259 41.718 6.619 51.535 4.6475l4.6021-.92425-.46872-5.4758c-.25779-3.0117-.68762-8.0194-.95518-11.128l-.48646-5.6525 2.6865.43529c1.4776.23941 5.5665.83664 9.0865 1.3272 16.362 2.2802 32.272 6.7491 79.6 22.359l16.4 5.4091 22.4 1.1698c18.971.99075 23.133 1.4335 27.186 2.8921 6.7754 2.4381 19.633 5.4596 27.614 6.4892 3.74.48248 9.4247 1.2251 12.633 1.6503 7.4391.986 22.743.98888 35.451.006 5.4539-.42153 18.916-1.1461 29.916-1.6101 11-.46401 25.22-1.3774 31.6-2.0298s17.18-1.7349 24-2.4056c19.571-1.9246 46.484-6.2153 68.295-10.888 6.1022-1.3073 11.228-2.2436 11.391-2.0806.40683.40684-6.9496 14.582-11.447 22.058-20.526 34.118-55.481 69.42-89.782 90.675-35.426 21.951-68.95 33.984-113.26 40.652-6.8137 1.0254-29.944 2.409-38 2.2729-3.74-.0632-11.702-.39618-17.694-.74001zm20.894-217.21c-.66-.15787-8.94-.86922-18.4-1.5808-9.46-.71155-20.98-1.5934-25.6-1.9597-4.62-.36631-20.08-.93206-34.355-1.2572l-25.955-.59122-5.8501-5.5969c-3.2176-3.0783-5.6961-5.7509-5.5079-5.9392 1.3898-1.3898 15.973-3.9934 30.469-5.44 10.701-1.0678 16.84-1.2284 28.8-.75321 8.36.33215 25.28.82596 37.6 1.0974l22.4.49346.24067 8.4c.13237 4.62.0261 9.57-.23626 11-.45685 2.4906-.92661 2.7679-3.6044 2.1274z" fill="#ab4e2f"/><path d="m271.49 535.14c-7.0978-.33517-17.538-1.3621-23.2-2.2821s-11.735-1.8867-13.495-2.1482c-3.004-.44632-8.3538-3.0106-14.8-7.0939-1.54-.97551-6.76-4.0527-11.6-6.8383-4.84-2.7855-9.2704-5.421-9.8453-5.8565-1.4435-1.0936 10.062-12.786 11.837-12.03.66447.28316 3.9081 1.3475 7.2081 2.3653 3.3 1.0177 9.6 3.0811 14 4.5852 29.572 10.109 44.238 13.188 59.094 12.408 5.3296-.28007 7.4231-.80808 11.579-2.9203 6.8074-3.46 17.767-10.755 17.483-11.638-.12566-.38993-3.6158-2.2309-7.7558-4.091-4.14-1.8602-7.6419-3.7258-7.782-4.1459-.14004-.42009.67672-6.6791 1.815-13.909 4.7119-29.928 6.3575-50.336 5.3386-66.209-.37421-5.8295-.29454-9.2892.22326-9.6953.4428-.34731 4.9451-.87207 10.005-1.1661s13.7-1.0461 19.2-1.6713c14.59-1.6585 27.389-2.666 50.8-3.9991 11.44-.65141 26.38-1.5497 33.2-1.9962 27.82-1.8213 83.987-9.7878 103.6-14.694 6.4883-1.6231 10-2.3032 10-1.9367 0 .72823-8.4038 16.52-11.761 22.1-15.922 26.465-39.589 52.738-67.165 74.558-8.3858 6.6356-15.625 11.841-19.975 14.364-22.946 13.306-34.081 19.02-47.099 24.171-38.823 15.362-78.129 21.789-120.91 19.769zm-111.09-137.61c-8.36-.34453-17.54-1.0079-20.4-1.4741-2.86-.46622-11.86-1.4026-20-2.0809-8.14-.6783-16.78-1.587-19.2-2.0194-2.42-.43238-9.08-1.4681-14.8-2.3016-11.042-1.609-24.232-4.2295-38-7.5495-17.324-4.1776-15.54-3.2774-17.904-9.035-1.1526-2.8066-2.0956-5.2595-2.0956-5.4508 0-.19135 1.2867-.58929 2.8594-.88433 3.2789-.61511 9.5625.29425 28.741 4.1594 7.48 1.5075 18.215 3.6271 23.856 4.7103 5.6409 1.0832 10.535 2.1414 10.875 2.3516s6.1649 1.1738 12.944 2.1412c12.96 1.8496 22.022 2.0162 29.795.54805l4.6694-.88204-.46936-5.4823c-.25816-3.0152-.68828-8.0259-.95584-11.135l-.48646-5.6525 2.6865.43529c1.4776.23941 5.5665.83664 9.0865 1.3272 11.636 1.6216 29.731 6.161 47.6 11.942 32.041 10.365 47.2 15.474 47.198 15.906-8e-4.2722-4.231 1.3282-9.4 2.3466s-14.798 2.9094-21.398 4.2021c-13.078 2.5616-30.699 4.7968-36.4 4.6175-1.98-.0622-10.44-.3951-18.8-.73963zm128.4-79.604c-.66-.15787-8.94-.86922-18.4-1.5808-9.46-.71155-20.98-1.5934-25.6-1.9597-4.62-.36631-20.08-.93206-34.355-1.2572l-25.955-.59122-5.8501-5.5969c-3.2176-3.0783-5.6961-5.7509-5.5079-5.9392 1.3898-1.3898 15.973-3.9934 30.469-5.44 10.701-1.0678 16.84-1.2284 28.8-.75321 8.36.33215 25.28.82596 37.6 1.0974l22.4.49346.24067 8.4c.13237 4.62.0261 9.57-.23626 11-.45685 2.4906-.92661 2.7679-3.6044 2.1274z" fill="#75472d"/><path d="m271.49 535.14c-7.0978-.33517-17.538-1.3621-23.2-2.2821s-11.735-1.8867-13.495-2.1482c-3.004-.44632-8.3538-3.0106-14.8-7.0939-1.54-.97551-6.76-4.0527-11.6-6.8383-4.84-2.7855-9.2704-5.421-9.8453-5.8565-1.4435-1.0936 10.062-12.786 11.837-12.03.66447.28316 3.9081 1.3475 7.2081 2.3653 3.3 1.0177 9.6 3.0811 14 4.5852 29.572 10.109 44.238 13.188 59.094 12.408 5.3296-.28007 7.4231-.80808 11.579-2.9203 6.8074-3.46 17.767-10.755 17.483-11.638-.12566-.38993-3.6158-2.2309-7.7558-4.091-4.14-1.8602-7.6419-3.7258-7.782-4.1459-.14004-.42009.67672-6.6791 1.815-13.909 4.7119-29.928 6.3575-50.336 5.3386-66.209-.37421-5.8295-.29454-9.2892.22326-9.6953.4428-.34731 4.9451-.87207 10.005-1.1661s13.7-1.0461 19.2-1.6713c14.59-1.6585 27.389-2.666 50.8-3.9991 37.348-2.1267 45.295-2.7763 68.8-5.6241 30.414-3.6848 59.616-8.3809 71.472-11.494 3.1505-.82715 5.7282-1.2724 5.7282-.98948 0 .75845-6.4535 13.32-9.852 19.176-7.4656 12.865-14.734 22.872-27.062 37.258-27.922 32.583-61.655 57.798-99.886 74.664-40.152 17.714-83.36 25.514-129.31 23.345zm-67.645-139.69c.57749-.2311 1.2675-.20268 1.5333.0631.26583.26583-.20667.45491-1.05.42018-.93196-.0384-1.1215-.22796-.48333-.48333zm4-.8c.57749-.2311 1.2675-.20268 1.5333.0631.26583.26583-.20667.45491-1.05.42018-.93196-.0384-1.1215-.22796-.48333-.48333z" fill="#90361c"/><path d="m440.8 463.31c0-31.701-1.4457-47.377-5.7441-62.286-.53513-1.8561-.70781-3.6399-.38374-3.964s6.4254-1.2036 13.559-1.9544c18.014-1.8962 38.235-4.525 45.369-5.8983 3.3-.63523 11.22-2.1113 17.6-3.2801s14.93-2.9312 19-3.9163c4.07-.98511 7.4-1.5682 7.4-1.2957 0 .74288-6.4942 13.371-9.852 19.157-11.601 19.992-27.619 39.729-47.836 58.946-3.2516 3.0907-7.838 7.2307-10.192 9.2-2.354 1.9693-5.0768 4.3005-6.0506 5.1805s-2.7688 2.32-3.9887 3.2c-1.2199.88-4.6316 3.4-7.5815 5.6-7.5327 5.6178-10.367 7.6-10.867 7.6-.23782 0-.4324-11.83-.4324-26.288z" fill="#73240d"/></g></svg>
