<?xml version="1.0" encoding="iso-8859-1"?>
<!-- Generator: Adobe Illustrator 19.0.0, SVG Export Plug-In . SVG Version: 6.00 Build 0)  -->
<svg version="1.1" id="Layer_1" xmlns="http://www.w3.org/2000/svg" xmlns:xlink="http://www.w3.org/1999/xlink" x="0px" y="0px"
	 viewBox="0 0 512 512" style="enable-background:new 0 0 512 512;" xml:space="preserve">
<g>
	<path style="fill:#FF6600;" d="M26.32,177.68h10.912v56.544c0,22.432-11.024,29.344-25.568,29.344c-4,0-8.896-0.896-11.664-2.016
		l1.632-8.896c2.256,0.864,5.52,1.632,9.168,1.632c9.76,0,15.536-4.4,15.536-20.944V177.68H26.32z"/>
	<path style="fill:#FF6600;" d="M88.672,262.176l-0.864-7.648h-0.384c-3.392,4.752-9.904,9.024-18.544,9.024
		c-12.288,0-18.576-8.656-18.576-17.424c0-14.656,13.056-22.688,36.496-22.576v-1.248c0-5.008-1.392-14.032-13.792-14.032
		c-5.648,0-11.536,1.76-15.792,4.512l-2.496-7.264c5.008-3.264,12.272-5.408,19.936-5.408c18.544,0,23.056,12.672,23.056,24.832
		v22.688c0,5.28,0.24,10.416,1.008,14.544H88.672z M87.04,231.2c-12.048-0.24-25.696,1.904-25.696,13.68
		c0,7.152,4.752,10.528,10.416,10.528c7.888,0,12.896-5.008,14.656-10.144c0.384-1.136,0.624-2.384,0.624-3.504V231.2z"/>
	<path style="fill:#FF6600;" d="M118.784,201.504l11.904,34.096c2.016,5.52,3.648,10.528,4.896,15.536h0.384
		c1.36-5.008,3.136-10.016,5.136-15.536l11.776-34.096h11.536l-23.824,60.672h-10.528l-23.056-60.672H118.784z"/>
	<path style="fill:#FF6600;" d="M207.968,262.176l-0.864-7.648h-0.384c-3.392,4.752-9.904,9.024-18.544,9.024
		c-12.288,0-18.576-8.656-18.576-17.424c0-14.656,13.056-22.688,36.496-22.576v-1.248c0-5.008-1.392-14.032-13.792-14.032
		c-5.648,0-11.536,1.76-15.792,4.512l-2.496-7.264c5.008-3.264,12.272-5.408,19.936-5.408c18.544,0,23.056,12.672,23.056,24.832
		v22.688c0,5.28,0.24,10.416,1.008,14.544H207.968z M206.336,231.2c-12.048-0.24-25.696,1.904-25.696,13.68
		c0,7.152,4.752,10.528,10.416,10.528c7.888,0,12.896-5.008,14.656-10.144c0.384-1.136,0.624-2.384,0.624-3.504V231.2z"/>
	<path style="fill:#FF6600;" d="M233.312,250.88c3.264,2.144,9.024,4.384,14.544,4.384c8.016,0,11.776-4,11.776-9.008
		c0-5.28-3.136-8.16-11.28-11.168c-10.912-3.888-16.048-9.904-16.048-17.168c0-9.792,7.904-17.808,20.944-17.808
		c6.144,0,11.536,1.76,14.928,3.776l-2.768,8.016c-2.368-1.52-6.768-3.504-12.4-3.504c-6.528,0-10.176,3.76-10.176,8.272
		c0,5.008,3.648,7.264,11.552,10.272c10.528,4,15.904,9.28,15.904,18.304c0,10.656-8.272,18.176-22.688,18.176
		c-6.656,0-12.8-1.632-17.056-4.128L233.312,250.88z"/>
	<path style="fill:#FF6600;" d="M327.744,259.92c-2.88,1.504-9.28,3.504-17.424,3.504c-18.304,0-30.208-12.4-30.208-30.944
		c0-18.688,12.784-32.224,32.608-32.224c6.496,0,12.272,1.632,15.28,3.136l-2.496,8.544c-2.64-1.52-6.768-2.88-12.784-2.88
		c-13.92,0-21.456,10.272-21.456,22.928c0,14.032,9.024,22.688,21.072,22.688c6.256,0,10.384-1.616,13.536-2.992L327.744,259.92z"/>
	<path style="fill:#FF6600;" d="M340.656,220.432c0-7.152-0.112-13.296-0.496-18.928h9.648l0.384,11.904h0.496
		c2.768-8.16,9.408-13.296,16.8-13.296c1.248,0,2.128,0.128,3.136,0.384v10.416c-1.12-0.24-2.256-0.384-3.76-0.384
		c-7.776,0-13.296,5.904-14.8,14.176c-0.24,1.504-0.496,3.264-0.496,5.136v32.336H340.64v-41.744H340.656z"/>
	<path style="fill:#FF6600;" d="M394.48,184.448c0.128,3.76-2.64,6.768-7.024,6.768c-3.888,0-6.64-3.024-6.64-6.768
		c0-3.888,2.88-6.88,6.88-6.88C391.84,177.568,394.48,180.56,394.48,184.448z M382.192,262.176v-60.672h11.04v60.672H382.192z"/>
	<path style="fill:#FF6600;" d="M411.552,221.296c0-7.76-0.24-14.032-0.496-19.792h9.904l0.512,10.416h0.24
		c4.512-7.392,11.664-11.792,21.568-11.792c14.656,0,25.696,12.432,25.696,30.832c0,21.808-13.296,32.608-27.584,32.608
		c-8.016,0-15.056-3.504-18.688-9.536h-0.24v32.992h-10.928v-65.728H411.552z M422.48,237.472c0,1.632,0.24,3.136,0.496,4.512
		c2.016,7.648,8.656,12.912,16.544,12.912c11.664,0,18.432-9.536,18.432-23.44c0-12.16-6.384-22.576-18.064-22.576
		c-7.504,0-14.528,5.392-16.672,13.648c-0.384,1.392-0.736,3.024-0.736,4.512L422.48,237.472L422.48,237.472z"/>
	<path style="fill:#FF6600;" d="M496.208,184.064v17.424H512v8.4h-15.792v32.72c0,7.504,2.128,11.776,8.272,11.776
		c2.88,0,5.024-0.384,6.384-0.736l0.512,8.272c-2.144,0.864-5.52,1.504-9.792,1.504c-5.136,0-9.28-1.632-11.904-4.624
		c-3.136-3.264-4.24-8.672-4.24-15.792v-33.104h-9.408v-8.4h9.408V186.96L496.208,184.064z"/>
</g>
<rect x="0" y="318.144" style="fill:#22ACDD;" width="512" height="16.288"/>
<g>
</g>
<g>
</g>
<g>
</g>
<g>
</g>
<g>
</g>
<g>
</g>
<g>
</g>
<g>
</g>
<g>
</g>
<g>
</g>
<g>
</g>
<g>
</g>
<g>
</g>
<g>
</g>
<g>
</g>
</svg>
